<svg width="654" height="451" viewBox="0 0 654 451" fill="none" xmlns="http://www.w3.org/2000/svg">
<rect x="283" y="193" width="39" height="39" fill="#FF5771"/>
<rect x="331" y="193" width="39" height="39" fill="#FF5771"/>
<rect x="283" y="238" width="39" height="39" fill="#FF5771"/>
<rect x="331" y="238" width="39" height="39" fill="#FF5771"/>
<path d="M654 328.5L327 0V56L437.5 164.844V330L476.5 329.5V296.5H516.5V257.5H476.5V203.5L603 328.5H654Z" fill="#201E42"/>
<path d="M0 328.5L327 0V56L216.5 164.844V330L177.5 329.5V296.5H137.5V257.5H177.5V203.5L51 328.5H0Z" fill="#201E42"/>
<path d="M105.97 398.08C105.97 401.2 105.22 404.11 103.72 406.81C102.22 409.45 99.94 411.58 96.88 413.2C93.82 414.82 90.07 415.63 85.63 415.63C81.31 415.63 77.44 414.88 74.02 413.38C70.6 411.82 67.87 409.66 65.83 406.9C63.79 404.14 62.62 400.96 62.32 397.36H73.3C73.6 400.12 74.77 402.49 76.81 404.47C78.91 406.45 81.7 407.44 85.18 407.44C88.3 407.44 90.7 406.6 92.38 404.92C94.12 403.24 94.99 401.08 94.99 398.44C94.99 396.16 94.36 394.3 93.1 392.86C91.84 391.36 90.28 390.19 88.42 389.35C86.56 388.51 84.01 387.55 80.77 386.47C76.81 385.21 73.57 383.95 71.05 382.69C68.59 381.43 66.49 379.6 64.75 377.2C63.01 374.8 62.14 371.65 62.14 367.75C62.14 364.33 62.98 361.33 64.66 358.75C66.34 356.17 68.74 354.19 71.86 352.81C74.98 351.37 78.58 350.65 82.66 350.65C89.14 350.65 94.27 352.21 98.05 355.33C101.89 358.45 104.08 362.53 104.62 367.57H93.55C93.13 365.17 91.99 363.13 90.13 361.45C88.33 359.71 85.84 358.84 82.66 358.84C79.78 358.84 77.47 359.59 75.73 361.09C73.99 362.53 73.12 364.63 73.12 367.39C73.12 369.55 73.72 371.35 74.92 372.79C76.12 374.17 77.62 375.28 79.42 376.12C81.28 376.9 83.8 377.83 86.98 378.91C91 380.17 94.27 381.46 96.79 382.78C99.37 384.04 101.53 385.9 103.27 388.36C105.07 390.82 105.97 394.06 105.97 398.08ZM138.921 364.78C143.721 364.78 148.041 365.8 151.881 367.84C155.721 369.88 158.721 372.82 160.881 376.66C163.041 380.5 164.121 385 164.121 390.16C164.121 395.38 163.041 399.91 160.881 403.75C158.721 407.59 155.721 410.53 151.881 412.57C148.041 414.61 143.721 415.63 138.921 415.63C134.121 415.63 129.801 414.61 125.961 412.57C122.181 410.53 119.181 407.59 116.961 403.75C114.801 399.85 113.721 395.32 113.721 390.16C113.721 385 114.801 380.5 116.961 376.66C119.181 372.82 122.181 369.88 125.961 367.84C129.801 365.8 134.121 364.78 138.921 364.78ZM138.921 373.69C136.281 373.69 133.851 374.29 131.631 375.49C129.411 376.69 127.611 378.55 126.231 381.07C124.911 383.53 124.251 386.56 124.251 390.16C124.251 393.82 124.911 396.88 126.231 399.34C127.611 401.8 129.411 403.63 131.631 404.83C133.851 406.03 136.281 406.63 138.921 406.63C141.561 406.63 143.991 406.03 146.211 404.83C148.431 403.63 150.201 401.8 151.521 399.34C152.901 396.88 153.591 393.82 153.591 390.16C153.591 386.56 152.901 383.53 151.521 381.07C150.201 378.55 148.431 376.69 146.211 375.49C143.991 374.29 141.561 373.69 138.921 373.69ZM201.705 364.6C207.465 364.6 212.085 366.46 215.565 370.18C219.045 373.9 220.785 379.21 220.785 386.11V415H210.525V387.19C210.525 382.75 209.385 379.33 207.105 376.93C204.825 374.47 201.705 373.24 197.745 373.24C193.665 373.24 190.395 374.56 187.935 377.2C185.475 379.78 184.245 383.59 184.245 388.63V415H173.985V348.4H184.245V376.3C185.565 372.58 187.785 369.7 190.905 367.66C194.025 365.62 197.625 364.6 201.705 364.6ZM278.864 387.82C278.864 389.5 278.744 390.97 278.504 392.23H240.344C240.524 397.33 241.934 401.11 244.574 403.57C247.214 406.03 250.484 407.26 254.384 407.26C257.804 407.26 260.684 406.39 263.024 404.65C265.424 402.91 266.894 400.6 267.434 397.72H278.414C277.754 401.2 276.374 404.29 274.274 406.99C272.174 409.69 269.444 411.82 266.084 413.38C262.724 414.88 258.974 415.63 254.834 415.63C250.034 415.63 245.774 414.61 242.054 412.57C238.394 410.53 235.514 407.59 233.414 403.75C231.314 399.91 230.264 395.38 230.264 390.16C230.264 385 231.314 380.5 233.414 376.66C235.514 372.82 238.394 369.88 242.054 367.84C245.774 365.8 250.034 364.78 254.834 364.78C259.694 364.78 263.924 365.8 267.524 367.84C271.184 369.82 273.974 372.58 275.894 376.12C277.874 379.6 278.864 383.5 278.864 387.82ZM268.514 387.55C268.634 384.31 268.064 381.61 266.804 379.45C265.604 377.23 263.924 375.61 261.764 374.59C259.664 373.51 257.354 372.97 254.834 372.97C250.814 372.97 247.454 374.2 244.754 376.66C242.054 379.12 240.584 382.75 240.344 387.55H268.514ZM299.031 348.4V415H288.771V348.4H299.031ZM383.03 351.46V415H372.68V386.47H342.8V415H332.54V351.46H342.8V378.1H372.68V351.46H383.03ZM418.15 364.78C422.95 364.78 427.27 365.8 431.11 367.84C434.95 369.88 437.95 372.82 440.11 376.66C442.27 380.5 443.35 385 443.35 390.16C443.35 395.38 442.27 399.91 440.11 403.75C437.95 407.59 434.95 410.53 431.11 412.57C427.27 414.61 422.95 415.63 418.15 415.63C413.35 415.63 409.03 414.61 405.19 412.57C401.41 410.53 398.41 407.59 396.19 403.75C394.03 399.85 392.95 395.32 392.95 390.16C392.95 385 394.03 380.5 396.19 376.66C398.41 372.82 401.41 369.88 405.19 367.84C409.03 365.8 413.35 364.78 418.15 364.78ZM418.15 373.69C415.51 373.69 413.08 374.29 410.86 375.49C408.64 376.69 406.84 378.55 405.46 381.07C404.14 383.53 403.48 386.56 403.48 390.16C403.48 393.82 404.14 396.88 405.46 399.34C406.84 401.8 408.64 403.63 410.86 404.83C413.08 406.03 415.51 406.63 418.15 406.63C420.79 406.63 423.22 406.03 425.44 404.83C427.66 403.63 429.43 401.8 430.75 399.34C432.13 396.88 432.82 393.82 432.82 390.16C432.82 386.56 432.13 383.53 430.75 381.07C429.43 378.55 427.66 376.69 425.44 375.49C423.22 374.29 420.79 373.69 418.15 373.69ZM515.224 364.6C521.104 364.6 525.784 366.46 529.264 370.18C532.804 373.9 534.574 379.21 534.574 386.11V415H524.314V387.19C524.314 382.87 523.234 379.54 521.074 377.2C518.914 374.8 515.944 373.6 512.164 373.6C508.144 373.6 504.934 374.89 502.534 377.47C500.194 379.99 499.024 383.71 499.024 388.63V415H488.764V387.19C488.764 382.87 487.684 379.54 485.524 377.2C483.364 374.8 480.394 373.6 476.614 373.6C472.594 373.6 469.384 374.89 466.984 377.47C464.644 379.99 463.474 383.71 463.474 388.63V415H453.214V365.41H463.474V375.76C464.734 372.16 466.834 369.4 469.774 367.48C472.714 365.56 476.164 364.6 480.124 364.6C484.264 364.6 487.834 365.62 490.834 367.66C493.894 369.7 496.114 372.64 497.494 376.48C498.934 372.76 501.244 369.85 504.424 367.75C507.604 365.65 511.204 364.6 515.224 364.6ZM592.634 387.82C592.634 389.5 592.514 390.97 592.274 392.23H554.114C554.294 397.33 555.704 401.11 558.344 403.57C560.984 406.03 564.254 407.26 568.154 407.26C571.574 407.26 574.454 406.39 576.794 404.65C579.194 402.91 580.664 400.6 581.204 397.72H592.184C591.524 401.2 590.144 404.29 588.044 406.99C585.944 409.69 583.214 411.82 579.854 413.38C576.494 414.88 572.744 415.63 568.604 415.63C563.804 415.63 559.544 414.61 555.824 412.57C552.164 410.53 549.284 407.59 547.184 403.75C545.084 399.91 544.034 395.38 544.034 390.16C544.034 385 545.084 380.5 547.184 376.66C549.284 372.82 552.164 369.88 555.824 367.84C559.544 365.8 563.804 364.78 568.604 364.78C573.464 364.78 577.694 365.8 581.294 367.84C584.954 369.82 587.744 372.58 589.664 376.12C591.644 379.6 592.634 383.5 592.634 387.82ZM582.284 387.55C582.404 384.31 581.834 381.61 580.574 379.45C579.374 377.23 577.694 375.61 575.534 374.59C573.434 373.51 571.124 372.97 568.604 372.97C564.584 372.97 561.224 374.2 558.524 376.66C555.824 379.12 554.354 382.75 554.114 387.55H582.284Z" fill="#201E42"/>
</svg>
